<svg xmlns="http://www.w3.org/2000/svg" viewBox="0 0 500 500"><g id="freepik--background-simple--inject-12"><path d="M61,241.74c-15.52,30-13.05,67.48,2.59,97.39s43.23,52.52,74.05,66.29,64.8,19.24,98.52,20.66c20,.83,40.1.28,59.85-2.93,22.61-3.69,45.2-11.17,62.83-25.8,12.29-10.2,21.68-23.44,29.92-37.11,18.42-30.57,31.73-63.9,45-97.06,6.52-16.34,13.08-32.79,16.78-50,7-32.72,3.16-68-12.56-97.55S394.35,62.81,362,54.37c-21.43-5.58-44.21-4.72-65.79.27A177.17,177.17,0,0,0,254,70.26c-32.53,17-58.15,44.18-86.1,67.21-12.28,10.13-21.81,23.54-34.32,33.79-12.66,10.39-26.07,19.85-38.54,30.47C81.61,213.14,69.11,226,61,241.74Z" style="fill:#7D5A50"></path><path d="M61,241.74c-15.52,30-13.05,67.48,2.59,97.39s43.23,52.52,74.05,66.29,64.8,19.24,98.52,20.66c20,.83,40.1.28,59.85-2.93,22.61-3.69,45.2-11.17,62.83-25.8,12.29-10.2,21.68-23.44,29.92-37.11,18.42-30.57,31.73-63.9,45-97.06,6.52-16.34,13.08-32.79,16.78-50,7-32.72,3.16-68-12.56-97.55S394.35,62.81,362,54.37c-21.43-5.58-44.21-4.72-65.79.27A177.17,177.17,0,0,0,254,70.26c-32.53,17-58.15,44.18-86.1,67.21-12.28,10.13-21.81,23.54-34.32,33.79-12.66,10.39-26.07,19.85-38.54,30.47C81.61,213.14,69.11,226,61,241.74Z" style="fill:#fff;opacity:0.7000000000000001"></path></g><g id="freepik--Window--inject-12"><line x1="352.75" y1="182.32" x2="450.96" y2="182.32" style="fill:none;stroke:#263238;stroke-linecap:round;stroke-linejoin:round"></line><line x1="272.05" y1="43.91" x2="272.05" y2="123.49" style="fill:none;stroke:#263238;stroke-linecap:round;stroke-linejoin:round"></line><line x1="132.02" y1="182.32" x2="73.03" y2="182.32" style="fill:none;stroke:#263238;stroke-linecap:round;stroke-linejoin:round"></line><line x1="355.88" y1="140.74" x2="393.57" y2="103.05" style="fill:none;stroke:#263238;stroke-linecap:round;stroke-linejoin:round"></line><line x1="378.16" y1="103.99" x2="397" y2="85.14" style="fill:none;stroke:#263238;stroke-linecap:round;stroke-linejoin:round"></line><line x1="46.18" y1="312.89" x2="83.87" y2="275.19" style="fill:none;stroke:#263238;stroke-linecap:round;stroke-linejoin:round"></line><line x1="68.45" y1="276.13" x2="87.3" y2="257.28" style="fill:none;stroke:#263238;stroke-linecap:round;stroke-linejoin:round"></line><line x1="359.31" y1="122.83" x2="371.31" y2="110.83" style="fill:none;stroke:#263238;stroke-linecap:round;stroke-linejoin:round"></line></g><g id="freepik--Stars--inject-12"><path d="M304.21,85.12l2.39,7.72a3.59,3.59,0,0,0,1.91,2.28L315,98l-6.45,2.85a3.61,3.61,0,0,0-1.91,2.28l-2.39,7.72-2.39-7.72a3.6,3.6,0,0,0-1.9-2.28L293.46,98l6.46-2.86a3.57,3.57,0,0,0,1.9-2.28Z" style="fill:#fff"></path><path d="M334.83,118.78l2.31,7.25a3.41,3.41,0,0,0,1.84,2.14l6.25,2.68L339,133.54a3.39,3.39,0,0,0-1.84,2.14l-2.31,7.25-2.31-7.25a3.4,3.4,0,0,0-1.85-2.14l-6.24-2.69,6.24-2.68a3.43,3.43,0,0,0,1.85-2.14Z" style="fill:#fff"></path><path d="M348.91,87.9l.76,2.39a1.15,1.15,0,0,0,.61.71l2.06.88-2.06.89a1.15,1.15,0,0,0-.61.71l-.76,2.39-.76-2.39a1.12,1.12,0,0,0-.61-.71l-2.06-.89,2.06-.88a1.12,1.12,0,0,0,.61-.71Z" style="fill:#fff;opacity:0.7000000000000001"></path><path d="M405.17,195.72l3.91,12.63a5.87,5.87,0,0,0,3.12,3.73l10.56,4.68-10.56,4.67a5.89,5.89,0,0,0-3.12,3.74l-3.91,12.63-3.91-12.63a5.89,5.89,0,0,0-3.12-3.74l-10.56-4.67,10.56-4.68a5.87,5.87,0,0,0,3.12-3.73Z" style="fill:#fff"></path><path d="M359.31,279.12l2.31,7.25a3.4,3.4,0,0,0,1.85,2.14l6.24,2.69-6.24,2.68a3.43,3.43,0,0,0-1.85,2.14l-2.31,7.25L357,296a3.44,3.44,0,0,0-1.84-2.14l-6.25-2.68,6.25-2.69a3.42,3.42,0,0,0,1.84-2.14Z" style="fill:#fff"></path><path d="M398.42,266.05l.76,2.39a1.15,1.15,0,0,0,.61.71l2.06.89-2.06.88a1.15,1.15,0,0,0-.61.71l-.76,2.39-.76-2.39a1.15,1.15,0,0,0-.61-.71L395,270l2.06-.89a1.15,1.15,0,0,0,.61-.71Z" style="fill:#fff"></path><path d="M246,95.87l1.74,6.06a2.81,2.81,0,0,0,1.39,1.79l4.69,2.25-4.69,2.24a2.81,2.81,0,0,0-1.39,1.79L246,116.06,244.27,110a2.81,2.81,0,0,0-1.39-1.79L238.19,106l4.69-2.25a2.81,2.81,0,0,0,1.39-1.79Z" style="fill:#fff"></path></g><g id="freepik--character-2--inject-12"><path d="M180.49,301S163.22,279.81,162,272.79l-13.32,7-48.55-.38a142.14,142.14,0,0,1-6.69-12.76c-1.92-4.65-2.71-12.73,8.18-14.92,0,0,6.41-11.46,8.72-20.64s-1.24-19.41,2.17-26.22,4.84-8.62,10.57-12,18.22-12,23.87-15.56a75.68,75.68,0,0,1,18.84-8.65c6.2-1.73,54.23-28,54.23-28l2.16,3.57-.37-3.57,6.91,4.7s5.13.89,14.83-2.55,29.19-14.56,42.24-8.62,32.63,26.65,38.57,32.81,18.52,18.81,21.64,28.14,9.68,14.91,13,18.59,19.17,16.23,8.44,32.24-50.8,3.68-50.8,3.68,1.82-9.47,5.64-15.63a55.53,55.53,0,0,0-7.22-11.71c-4.83-6-21.52-24.88-31.1-29.38s-47.67,84.43-47.67,84.43l-7.76-2.85-1.32,12S187.52,296.06,180.49,301Z" style="fill:#7D5A50"></path><path d="M275.13,156.52c11.71-1.42,23.51,4,32,12.15s14.07,18.93,18.49,29.87a191.66,191.66,0,0,1,7.88,24c7.71-2.15,16.95-2.75,24.7-.79-5.34,1.49-10.8,1.88-16.91,4.3,5.91.05,11.92.91,17.2,3.57s9.74,7.32,11.18,13.05c.13.55-.06,1.41-.6,1.24l-7.66,10.77-44.76-1.79s-1.34-8,5.64-18.74a76,76,0,0,0-12.95-18.82c-9.1-9.95-23.56-20.62-23.56-20.62Z" style="opacity:0.2"></path><path d="M96.08,272.79s-8-15.19,11.37-19.9c0,0,5.64-4.61,7.4-11s2-41.51,28-46.16,38.47-10.19,44.81-27.5S231.11,165,231.11,165l16.3,84.08-20.2,37.48L180.49,301s-18-23.09-22.62-37.76-38.43,10.65-38.43,10.65l-16.92,7.25Z" style="opacity:0.2"></path><path d="M302.68,282l-12.14-.55L287,273.18l-1.65,1.67-2.81-11.49s16.19-4.22,27.89-12.6c13.95-8,38.68-19.22,55.78-9.25,0,0-.47,6.94-1,11.26s-1.95,11-14.36,17.66l-42.66,9.31" style="fill:#fff"></path><path d="M199.2,112.49,183.05,99.6l-18.21,16.3-22,12.51,5.53,25.22s12.06,14.88,17.42,20.76,4.64,6.26,11.33,9,22.54,3.81,22.54,3.81a39.4,39.4,0,0,0,8-3.75c4.16-2.55,5.34-10.72,5.34-10.72l6.25-5.6.86-10.05A30.63,30.63,0,0,0,222,143l-9.15-12.35s3,.23,3.91-2.25,1.52-8.6,1.52-8.6.1-3-4.32-9.08-4.8-8.24-10.49-6.75S199.2,112.49,199.2,112.49Z" style="fill:#fff"></path><path d="M227.21,268.55c-1.18-2.33-13.55-18.5-18-22.24,0,0-24.29-10.16-29.65-8.69l-15.69,4.76s-18.54,5.47-23,7.8-11.88,4.14-20.27,6.11-18.45,3.25-19.93,10.23-2.48,18.18-.31,25.35c0,0-.09,7.15,1.14,9.09s11,2.89,19.78-1.45,19.8-11.4,27.39-19.67l20.22-9.26,12.84,10.52,7.31,1.48,6.5-4.38,4.46,2.9h3.86l1.06-5.5-9.38-11.87,19.32,11.87,3.87-2.81-1.25-7.2,7,7.2S228.39,270.89,227.21,268.55Zm-23.57-13.34,5.09,1.45,5.11,6.31Z" style="fill:#fff"></path><path d="M193.06,150.9c1.25,1.6,1.62,3.42.81,4s-2.47-.16-3.73-1.77-1.62-3.42-.81-4S191.8,149.29,193.06,150.9Z" style="fill:#263238"></path><path d="M172.09,162.76c1.25,1.61,1.62,3.42.81,4.05s-2.47-.17-3.73-1.78-1.62-3.42-.81-4.05S170.83,161.15,172.09,162.76Z" style="fill:#263238"></path><path d="M199.2,170.79s5-3.32,3-11.6" style="fill:none;stroke:#263238;stroke-linecap:round;stroke-linejoin:round"></path><path d="M182.3,146.09A12,12,0,0,1,193,139.7" style="fill:none;stroke:#263238;stroke-linecap:round;stroke-linejoin:round;stroke-width:2px"></path><path d="M169.57,154.83a12.75,12.75,0,0,0-7.59,8" style="fill:none;stroke:#263238;stroke-linecap:round;stroke-linejoin:round;stroke-width:2px"></path><path d="M174,158.09a27.68,27.68,0,0,1,10.42,13.29,21.71,21.71,0,0,0,7.24,1l.54-6.25" style="fill:none;stroke:#263238;stroke-linecap:round;stroke-linejoin:round"></path><path d="M138.43,130.85s0,10,5.12,16.54c4.74,6.1,14.52,17.28,15.94,18.91a4,4,0,0,1,.32.4c1.14,1.57,8.55,11.63,12.74,14.77,3.75,2.81,20.57,5,26.39,5.65a6,6,0,0,0,3.69-.77l5-2.94a5.92,5.92,0,0,0,2.59-3.11L215.42,166a5.81,5.81,0,0,0,.36-2v-8.69a5.85,5.85,0,0,0-.39-2.11l-6.25-16.42" style="fill:none;stroke:#263238;stroke-linecap:round;stroke-linejoin:round"></path><path d="M213,130.85s1.91,4.48,9,12.17" style="fill:none;stroke:#263238;stroke-linecap:round;stroke-linejoin:round"></path><path d="M284.86,262.78s13.46-4.68,22.93-10.53,40.39-20.88,59-11.14l-.33,1.77a47.19,47.19,0,0,0-.71,9.5c.11,5.69-2.46,10.59-14.37,17.66-14.88,1.86-48.09,11.61-48.09,11.61" style="fill:none;stroke:#263238;stroke-linecap:round;stroke-linejoin:round"></path><path d="M169.23,271.31c-4.47.82-11.2,6.23-13.39,10.22s-3.48,8.42-5.68,12.4a30.58,30.58,0,0,1-11.23,11.49c-6.12,3.58-13.56,5.07-18.67,10a24.08,24.08,0,0,0-5.72,9.29,35.06,35.06,0,0,0,18.8,44" style="fill:none;stroke:#263238;stroke-linecap:round;stroke-linejoin:round;stroke-width:2px"></path><path d="M172.06,240.35s-24.28,5.45-33.63,11.14-34.66,3.7-38.08,15.92,0,24.46,0,24.46S99.5,299,101.49,301s22.47,5.13,46.07-20.46c0,0,13.94-8.47,21.05-9.07" style="fill:none;stroke:#263238;stroke-linecap:round;stroke-linejoin:round"></path><path d="M168.61,243.23s6.51-7.09,13.61-5.32,23.66,6,27,8.4,17.57,19.4,18,22.24-2.71,4.24-2.71,4.24l-15.78-16.13-9.52-3" style="fill:none;stroke:#263238;stroke-linecap:round;stroke-linejoin:round"></path><path d="M202.32,254.63l15.15,11,1.25,7.19-3.87,2.81s-15.72-10.48-21.64-13" style="fill:none;stroke:#263238;stroke-linecap:round;stroke-linejoin:round"></path><polyline points="194.01 262.97 204.91 275.6 203.85 281.1 199.99 281.1 181.72 269.22" style="fill:none;stroke:#263238;stroke-linecap:round;stroke-linejoin:round"></polyline><path d="M155,265.11c1.13,3.22,6.9,3.68,11.54,4.53s15.2,11.46,15.2,11.46l7.32,1.48,6.49-4.38" style="fill:none;stroke:#263238;stroke-linecap:round;stroke-linejoin:round"></path><path d="M165.77,241.88s-5.26-23.35-15.8-36.26" style="fill:none;stroke:#263238;stroke-linecap:round;stroke-linejoin:round"></path><path d="M168.61,240.59s5.34-11.77-2.84-28.48" style="fill:none;stroke:#263238;stroke-linecap:round;stroke-linejoin:round"></path><path d="M162,169.6c-10.92,2.8-25,16.18-41,24.46-11.83,6.11-9.38,21.05-10,32.29s-9.39,25.43-9.39,25.43-7.92,1.76-9.09,8.12,6.35,17.69,6.35,17.69" style="fill:none;stroke:#263238;stroke-linecap:round;stroke-linejoin:round"></path><path d="M162,273.85s10.35,21.42,18.51,26.26" style="fill:none;stroke:#263238;stroke-linecap:round;stroke-linejoin:round"></path><path d="M135.45,252.89s-12.07-5.49-23-3.3" style="fill:none;stroke:#263238;stroke-linecap:round;stroke-linejoin:round"></path><path d="M138.43,251.49C135.19,247.81,124,245,124,245" style="fill:none;stroke:#263238;stroke-linecap:round;stroke-linejoin:round"></path><path d="M314.26,157.8s26,21.62,33,40.52c5.49,14.86,35.76,28.75,19.05,49.18" style="fill:none;stroke:#263238;stroke-linecap:round;stroke-linejoin:round"></path><path d="M316.64,247.5A30.63,30.63,0,0,1,321,235.65c3.9-6.63,23.92-8,34.91-4.51" style="fill:none;stroke:#263238;stroke-linecap:round;stroke-linejoin:round"></path><path d="M211.36,196.49a2.8,2.8,0,1,1-2.8-2.8A2.8,2.8,0,0,1,211.36,196.49Z" style="fill:#263238"></path><path d="M214.16,213.75a2.8,2.8,0,1,1-2.8-2.8A2.8,2.8,0,0,1,214.16,213.75Z" style="fill:#263238"></path><path d="M200.14,122.58l-.5-12.18a5.26,5.26,0,0,1,3-5l2-.93a5.25,5.25,0,0,1,6.7,2l6.17,10.06a5.31,5.31,0,0,1,.75,3.26l-.61,6.13a5.26,5.26,0,0,1-4.82,4.72l-2.27.18" style="fill:none;stroke:#263238;stroke-linecap:round;stroke-linejoin:round"></path><path d="M220.11,154.83c3.15-5.22,1.68-14.09,1.68-14.09l7.86,5.35s.79,2.42,0,7.7" style="fill:none;stroke:#263238;stroke-linecap:round;stroke-linejoin:round"></path><path d="M230.28,146a105.12,105.12,0,0,0,23.88-6.89c11.74-5,20.68-10.52,33.25-4,6.79,3.51,12.63,8.59,19.16,12.51" style="fill:none;stroke:#263238;stroke-linecap:round;stroke-linejoin:round"></path><path d="M168.05,137.36s-24.54-1.74-32.93-9.83-7.94-31.75-7.94-31.75a68.68,68.68,0,0,0,2.45,8.21c.22.58.46,1.15.7,1.68,1.8,3.89,1.8-9.89,1.8-9.89l1.5,5.39s9-15.87,15.27-20.07,32.95-3.29,45.84,1.8L207.32,104s-6.1,0-7.22,4.06c-.36,4.8,0,12.31,0,12.31a35.38,35.38,0,0,1-17-14.36S177.49,126,168.05,137.36Z" style="fill:#263238"></path><path d="M143.09,130.85s9,13.46,6.54,24c0,0-6.81-9.9-8.7-12-3.33-3.68-5.36-19.35-5.36-19.35Z" style="fill:#263238"></path><path d="M325.11,231.66c3.13-3.2,7.39-5,11.53-6.68,3.63-1.49,7.34-3,11.26-3.28" style="fill:none;stroke:#263238;stroke-linecap:round;stroke-linejoin:round"></path><path d="M213,250.21l16.45,2.54,1.5,23.44-14.09-1.57,1.86-1.83-1.09-6.29,6.87,6.29a4.62,4.62,0,0,0,2.71-4.24C227.4,265.21,213,250.21,213,250.21Z" style="fill:#263238"></path><polygon points="213.84 262.97 208.72 256.66 203.64 255.21 213.84 262.97" style="fill:#263238"></polygon><polygon points="211.51 273.85 201.21 271.31 195.53 263.73 211.51 273.85" style="fill:#263238"></polygon></g><g id="freepik--character-1--inject-12"><path d="M216.15,229.13a11,11,0,0,0,2.53,7.74,13,13,0,0,0,6.47,3.44,4.33,4.33,0,0,0,3.34-.1c1.12-.68,1.45-2.13,1.68-3.42,1-5.67,1.85-11.89-1-16.88-1.06-1.84-3.45-9.22-5.52-9.68C217.59,208.9,216.25,225,216.15,229.13Z" style="fill:#263238"></path><path d="M292.77,170l4.36,19.49a26.05,26.05,0,0,1-1.21,13.32l.92,7.12,1.88,10.79s-2.74,17.76-8.52,25.81-6.42,5-6.42,5l2.2,22.88a51.82,51.82,0,0,1-25.14,7.42c-14.15.18-29.89-5.69-29.89-5.69a215.51,215.51,0,0,0-1.5-23.44C228,242.69,226.19,232,226.19,232l-5.54-7-4.46-6L213,208.7l2.23-6.78,1.15-1.27a19.26,19.26,0,0,1,4.24-1.61c1.74-.31,9,6.58,9,6.58l.82-17.9,1.74-19,35-10.93,17.61,5.52Z" style="fill:#fff"></path><path d="M294.24,175.62s3.59,15.66,3.34,17.71-1.66,11.55-1.66,11.55l2.7,14.86a6.28,6.28,0,0,1-.09,2.66c-1.17,4.65-5.37,20.27-10.79,28.51-6.42,9.76-39.71,5.06-46.64-.07l-6.81-22.05" style="fill:none;stroke:#263238;stroke-linecap:round;stroke-linejoin:round"></path><path d="M266.13,229.7s4.89,7,12.22,5.82" style="fill:none;stroke:#263238;stroke-linecap:round;stroke-linejoin:round"></path><path d="M226.19,232s5.27,26.44,4.76,44.2c0,0,14.48,5.52,28.41,5.7S286,274.46,286,274.46c-1.09-6.94-1.63-21.3-1.63-21.3" style="fill:none;stroke:#263238;stroke-linecap:round;stroke-linejoin:round"></path><path d="M230.49,207.29c.89,4.45,3,8.43,3.85,12.87a9.29,9.29,0,0,0,1.27,3.66c1.18,1.67,5.16,1.19,7.07.47.14,0-1.51-10.86-1.55-12.29A32.07,32.07,0,0,1,243,199.66c1.36-3.48,2.67-6.82,2.31-10.63-.39-4.23-2.21-8.22-4.07-12a30.43,30.43,0,0,0,16.61,4.39c9.15-.51,4.06-9.4,4.06-9.4s26.17,7.62,41.16,1.27,16.77-18.8,13-24.65-27.41,1.79-25.85.72c2-1.35,5.45-5,4.53-7.66a2.94,2.94,0,0,0-1.93-1.77c-3.72-1.16-9.41,2.13-12.67,3.61-4.35,2-8.63,4.17-13.26,5.38-8.39,2.21-17.12,2.14-25.71,2.43-4.06.14-8.09.44-12.12.82-3.49.32-7.38.65-10.12,3.1a1.81,1.81,0,0,0-.24.24C215,159.8,220.91,205,220.91,205Z" style="fill:#263238"></path><path d="M222.84,164.77s-6.17-2.61-10.21,1.19,2.85,39.66,2.85,39.66l8.41-.11Z" style="fill:#263238"></path><path d="M119.63,422.87H398.42l-6.35-19.15S361.59,319.14,343,292.43l-9.25-5.89-7.89-3.5-35.31-1.55-2.92-8.7s-14.23,9.21-28.26,9.1-30.83-7.3-30.83-7.3l-1.32,12s-33.93,9.38-40,10.84S150,314.16,150,314.16s-.5,2.43-1.33,7.23-13.37,44.39-13.37,44.39L117,422.87Z" style="fill:#7D5A50"></path><path d="M276.79,200.65q.39,2.64.93,5.27c.42,2,1,4.19,2.62,5.47,1.33,1,3.19,1.32,4.35,2.55a4.94,4.94,0,0,1,.64,5.21,14.46,14.46,0,0,1-3.29,4.43" style="fill:none;stroke:#263238;stroke-linecap:round;stroke-linejoin:round"></path><path d="M289.47,205.62c0,2-.83,3.69-1.85,3.69s-1.85-1.65-1.85-3.69.83-3.7,1.85-3.7S289.47,203.58,289.47,205.62Z" style="fill:#263238"></path><path d="M267,206.53c0,2.05-.83,3.7-1.85,3.7s-1.85-1.65-1.85-3.7.83-3.69,1.85-3.69S267,204.49,267,206.53Z" style="fill:#263238"></path><path d="M268.33,196.22s-5.84-4.64-12.88,2.1" style="fill:none;stroke:#263238;stroke-linecap:round;stroke-linejoin:round;stroke-width:2px"></path><path d="M283.16,195.43s6.52-3.64,11,.95" style="fill:none;stroke:#263238;stroke-linecap:round;stroke-linejoin:round;stroke-width:2px"></path><path d="M295.92,231.64s-3.28,18-12.76,18.57-7.47-8.33-7.47-8.33l-7.36-1.29s-1.91,8.78-8.32,8.78-16.59-14.8-18.7-32.5l-11.66-11.25s4.65,26.18,7.81,35l3.64,10.2S255.45,259.9,270,263c14.66-3.07,16.1-9.31,17.72-12.06S295.92,231.64,295.92,231.64Z" style="fill:#263238"></path><path d="M223.26,163.32a7.23,7.23,0,0,1,3.13-5.45,14.66,14.66,0,0,1,6-2.35c7.43-1.42,15.07-.06,22.6.77s15.5,1.07,22.27-2.32a22.69,22.69,0,0,0,11.3-13.23" style="fill:none;stroke:#fff;stroke-linecap:round;stroke-linejoin:round"></path><path d="M233.05,165.55a11.08,11.08,0,0,1,3.71-2c5.43-1.85,11.42-.93,17,.58s11,3.59,16.72,4a47.9,47.9,0,0,0,11.08-.72c6.24-1,12.52-2.48,18-5.65s10.08-8.23,11.55-14.37" style="fill:none;stroke:#fff;stroke-linecap:round;stroke-linejoin:round"></path><path d="M227.21,168.78a4.47,4.47,0,0,0-4.45,2.63,12.2,12.2,0,0,0-1,5.4,117.3,117.3,0,0,0,2.5,26" style="fill:none;stroke:#fff;stroke-linecap:round;stroke-linejoin:round"></path><path d="M234.78,230.19s-3.65,3.14-6.19,3c-2.16-.14-10-10.87-12.25-14a6.55,6.55,0,0,1-.89-1.82l-2.11-7.11a6.08,6.08,0,0,1,.14-3.93l1.15-3a6.11,6.11,0,0,1,3.29-3.46h0a6.14,6.14,0,0,1,6.78,1.29l5.72,5.71" style="fill:#fff;stroke:#263238;stroke-linecap:round;stroke-linejoin:round"></path><path d="M290.21,283.53l-2.59-10.74s-15.94,9.9-26.78,9.09-27.8-4.58-32.31-7.29l-1.32,12s14,11.28,31.79,10.82S290.21,283.53,290.21,283.53Z" style="fill:none;stroke:#263238;stroke-linecap:round;stroke-linejoin:round"></path><path d="M322.28,234.1c-9.69-19.29-25.9-30.92-25.9-30.92" style="fill:none;stroke:#263238;stroke-linecap:round;stroke-linejoin:round"></path><path d="M227.21,286.54l-36.75,9.85a51,51,0,0,0-7.22,2.52c-8.9,3.88-31.67,13.87-33.27,15.25a2.79,2.79,0,0,0-.88,2,52.6,52.6,0,0,1-2.17,13.31l-30,93.38" style="fill:none;stroke:#263238;stroke-linecap:round;stroke-linejoin:round"></path><path d="M398.42,422.87C373.5,345.48,353,308,345.49,295.69a19.16,19.16,0,0,0-7.76-7.15l-8.2-4.11a19.24,19.24,0,0,0-7.8-2l-31.52-1.31" style="fill:none;stroke:#263238;stroke-linecap:round;stroke-linejoin:round"></path><path d="M221.41,316.85a104.13,104.13,0,0,0-5.27,10.75" style="fill:none;stroke:#263238;stroke-linecap:round;stroke-linejoin:round"></path><path d="M237.36,292.56a236.75,236.75,0,0,0-13.92,20.75" style="fill:none;stroke:#263238;stroke-linecap:round;stroke-linejoin:round"></path><path d="M241.82,294.39s-5.19,14.59-7,27" style="fill:none;stroke:#263238;stroke-linecap:round;stroke-linejoin:round"></path><path d="M292.6,310.08a52.48,52.48,0,0,1,3.32,8.05" style="fill:none;stroke:#263238;stroke-linecap:round;stroke-linejoin:round"></path><path d="M279.7,291.2a99.85,99.85,0,0,1,10.51,14.52" style="fill:none;stroke:#263238;stroke-linecap:round;stroke-linejoin:round"></path><path d="M273,294.39s5.34,15.57,5.32,23.74" style="fill:none;stroke:#263238;stroke-linecap:round;stroke-linejoin:round"></path><path d="M383.22,422.88H117l18.33-57.1s12.54-39.59,13.36-44.38,1.33-7.24,1.33-7.24,31.17-15.32,37.25-16.79,40-10.82,40-10.82l1.32-12s16.81,7.19,30.84,7.3c9.38.08,18.87-4,24.1-6.75l.88,8.07c-3.44,3.17-11.93,10.41-21.52,14.15.81-.18,13.32-3.1,22-9.85l0,.4s40.56,3.28,46.55,8C344.32,306.26,374.51,399.41,383.22,422.88Z" style="opacity:0.30000000000000004"></path></g><g id="freepik--Table--inject-12"><line x1="65.16" y1="422.87" x2="432.87" y2="422.87" style="fill:none;stroke:#263238;stroke-linecap:round;stroke-linejoin:round"></line></g><g id="freepik--Mirror--inject-12"><path d="M421.32,435.48c-4.26-3.57-8.09-5.88-10.67-11.07-4.72-9.51-6.3-20.56-7.43-31-3.1-28.81-7.9-8.76-7.9-8.76a116.4,116.4,0,0,1-1,19.66c-1.65,12.85-5.16,25-17.69,31a1.81,1.81,0,0,0-1.09,1.63c0,3,10.43,5.37,23.3,5.37s23.3-2.4,23.3-5.37A1.93,1.93,0,0,0,421.32,435.48Z" style="fill:#7D5A50;stroke:#263238;stroke-linecap:round;stroke-linejoin:round"></path><path d="M426.41,385.19c-5,22.87-24,38.13-42.5,34.09a29.39,29.39,0,0,1-15.9-9.6h0c-8.18-9.37-11.82-24-8.52-39.08,5-22.86,24-38.12,42.49-34.09,8,1.75,14.66,6.87,19.15,14h0C427,359.71,429.23,372.29,426.41,385.19Z" style="fill:none;stroke:#263238;stroke-linecap:round;stroke-linejoin:round"></path><path d="M433.93,386.43c-5.86,26.76-28.25,44.61-50,39.89a34.6,34.6,0,0,1-18.71-11.24h0c-9.62-10.95-13.9-28.07-10-45.72,5.86-26.75,28.24-44.61,50-39.89,9.46,2.05,17.24,8,22.52,16.35,0,0,0,0,0,0C434.59,356.62,437.25,371.34,433.93,386.43Z" style="fill:#7D5A50;stroke:#263238;stroke-linecap:round;stroke-linejoin:round"></path><path d="M382.65,342.9S366.07,355.8,362.72,375s1.32,35.68,15.61,42.48,28.42.16,38.43-11.69,13-31.49,8.77-45.65C420.71,344,400.54,331.89,382.65,342.9Z" style="fill:#fff;opacity:0.5"></path><path d="M426.41,385.19c-5,22.87-24,38.13-42.5,34.09a29.39,29.39,0,0,1-15.9-9.6h0c-5.84-9.23-8.1-21.8-5.28-34.71,5-22.86,24-38.12,42.5-34.09a29.39,29.39,0,0,1,15.9,9.61h0C427,359.71,429.23,372.29,426.41,385.19Z" style="fill:none;stroke:#263238;stroke-linecap:round;stroke-linejoin:round"></path><path d="M366.08,407.07s-8-14.71-2.86-34.19,19.92-30.37,28-31.51,22-1.66,31.84,11.23c0,0-8.25-17.27-28.46-16.7S365.37,354,360.34,367.18,361,399.91,366.08,407.07Z" style="fill:#263238"></path><line x1="378.33" y1="373.3" x2="392.62" y2="359.01" style="fill:none;stroke:#263238;stroke-linecap:round;stroke-linejoin:round"></line><line x1="380.28" y1="389.44" x2="394.56" y2="375.16" style="fill:none;stroke:#263238;stroke-linecap:round;stroke-linejoin:round"></line><line x1="380.28" y1="378.62" x2="407.03" y2="351.86" style="fill:none;stroke:#263238;stroke-linecap:round;stroke-linejoin:round"></line><path d="M397.2,438.35a91.5,91.5,0,0,0,20.9-2" style="fill:#7D5A50;stroke:#263238;stroke-linecap:round;stroke-linejoin:round"></path><path d="M382.65,437.34s3,.44,7.62.75" style="fill:#7D5A50;stroke:#263238;stroke-linecap:round;stroke-linejoin:round"></path><path d="M290.32,450.09s-.05-8.11-6.58-10c-10.86-3.1-27-2.27-37.73.4-4.78,1.19-8.81,7.29-11.46,2s-1.69-8.6,5.18-13.14,14.13-1.17,20.28-.72c16.63,1.21,33.67,1.6,50.37,1.37,14.42-.2,36.81-1.18,44.58,6.52,2,2-7.33,19.37-8,19.55s2.6-14.93,1.62-15.23C332.88,436,312.94,434.64,295,436c0,0-2.59,15.41-3.4,15.38S290.32,450.09,290.32,450.09Z" style="fill:#263238"></path><path d="M298,449.48c2.33-9.18.58-9.37,2.81-14.76" style="fill:none;stroke:#263238;stroke-linecap:round;stroke-linejoin:round"></path><path d="M300,449.41c2.1-8.68.36-9.27,2.81-14.41" style="fill:none;stroke:#263238;stroke-linecap:round;stroke-linejoin:round"></path><path d="M295.93,449.61c2.53-9.6.72-9.47,2.77-15" style="fill:none;stroke:#263238;stroke-linecap:round;stroke-linejoin:round"></path><path d="M294,449.79c2.62-9.67.56-9.52,2.6-14.92" style="fill:none;stroke:#263238;stroke-linecap:round;stroke-linejoin:round"></path><path d="M302.74,449.4c1.87-8.36.44-9.35,3.06-14.52" style="fill:none;stroke:#263238;stroke-linecap:round;stroke-linejoin:round"></path><path d="M304.39,449.42c1.77-8.34.76-9.48,3.37-14.88" style="fill:none;stroke:#263238;stroke-linecap:round;stroke-linejoin:round"></path><path d="M306.87,449.51c1.53-7.9.64-9.57,3.52-14.81" style="fill:none;stroke:#263238;stroke-linecap:round;stroke-linejoin:round"></path><path d="M309.05,449.61c1.34-7.65.73-9.71,3.75-14.95" style="fill:none;stroke:#263238;stroke-linecap:round;stroke-linejoin:round"></path><path d="M311.14,449.74c1.16-7.34.6-9.82,3.83-14.93" style="fill:none;stroke:#263238;stroke-linecap:round;stroke-linejoin:round"></path><path d="M313.55,449.89c1-7,.5-10,3.94-15" style="fill:none;stroke:#263238;stroke-linecap:round;stroke-linejoin:round"></path><path d="M315.85,450.05c.81-6.77.36-10.09,4-15" style="fill:none;stroke:#263238;stroke-linecap:round;stroke-linejoin:round"></path><path d="M318.05,450.21c.7-6.73.53-10.28,4.2-15.29" style="fill:none;stroke:#263238;stroke-linecap:round;stroke-linejoin:round"></path><path d="M320.53,450.38c.6-6.61.44-10.41,4.23-15.39" style="fill:none;stroke:#263238;stroke-linecap:round;stroke-linejoin:round"></path><path d="M322.48,450.51c.55-6.61.44-10.53,4.24-15.52" style="fill:none;stroke:#263238;stroke-linecap:round;stroke-linejoin:round"></path><path d="M324.36,450.62c.53-6.56.22-10.56,4.12-15.42" style="fill:none;stroke:#263238;stroke-linecap:round;stroke-linejoin:round"></path><path d="M326.68,450.78c.53-6.61.2-10.64,4.12-15.43" style="fill:none;stroke:#263238;stroke-linecap:round;stroke-linejoin:round"></path><path d="M328.43,450.94c.53-6.52-.1-10.62,3.91-15.17" style="fill:none;stroke:#263238;stroke-linecap:round;stroke-linejoin:round"></path><path d="M330.71,451.19c.53-6.59-.13-10.7,3.9-15.16" style="fill:none;stroke:#263238;stroke-linecap:round;stroke-linejoin:round"></path><path d="M333.09,451.5c.53-6.6-.23-10.76,3.81-15.07" style="fill:none;stroke:#263238;stroke-linecap:round;stroke-linejoin:round"></path><path d="M334.82,451.77c.53-6.59-.33-10.78,3.69-15" style="fill:none;stroke:#263238;stroke-linecap:round;stroke-linejoin:round"></path><path d="M336.79,452.15c.51-6.43-.43-10.61,3.3-14.68" style="fill:none;stroke:#263238;stroke-linecap:round;stroke-linejoin:round"></path><path d="M338.82,452.6c.52-6.53-.37-10.76,3.3-14.83" style="fill:none;stroke:#263238;stroke-linecap:round;stroke-linejoin:round"></path><path d="M340.94,453.16c.54-6.65-.29-11,3.32-15.1" style="fill:none;stroke:#263238;stroke-linecap:round;stroke-linejoin:round"></path><path d="M343.15,454.29c.55-6.91.73-10,3.47-15.63" style="fill:none;stroke:#263238;stroke-linecap:round;stroke-linejoin:round"></path><path d="M345.38,455.15c1.34-6.71.65-11.15,3.16-15.71" style="fill:none;stroke:#263238;stroke-linecap:round;stroke-linejoin:round"></path></g></svg>